<svg xmlns="http://www.w3.org/2000/svg" viewBox="0 0 512 512">
  <!-- 渐变背景 -->
  <defs>
    <linearGradient id="bg" x1="0%" y1="0%" x2="100%" y2="100%">
      <stop offset="0%" style="stop-color:#C41E3A"/>
      <stop offset="100%" style="stop-color:#6B0000"/>
    </linearGradient>
  </defs>
  <rect width="512" height="512" rx="80" fill="url(#bg)"/>
  
  <!-- 简洁手掌 -->
  <g transform="translate(156, 90) scale(0.8)">
    <path d="M40 120 L40 200 Q40 230 70 230 L70 150 Q70 120 100 120 L100 200 Q100 230 130 230 L130 170 Q130 140 160 170 L160 200 Q160 230 190 230 L190 190 Q190 160 220 190 Q250 220 220 250 L190 250 Q160 250 160 220 L160 120 Q160 90 190 120 L190 200 Q190 250 140 250 L40 250 Q10 250 10 210 L10 120 Q10 80 40 80" fill="#fff"/>
  </g>
  
  <!-- 文字 -->
  <text x="256" y="430" text-anchor="middle" font-family="PingFang SC, Microsoft YaHei, sans-serif" font-size="54" font-weight="bold" fill="#fff">莫吵了</text>
</svg>
